<?xml version="1.0" standalone="no"?>
<!DOCTYPE svg PUBLIC "-//W3C//DTD SVG 20010904//EN"
 "http://www.w3.org/TR/2001/REC-SVG-20010904/DTD/svg10.dtd">
<svg version="1.0" xmlns="http://www.w3.org/2000/svg"
 width="1220.000000pt" height="1449.000000pt" viewBox="0 0 1220.000000 1449.000000"
 preserveAspectRatio="xMidYMid meet">

<g transform="translate(0.000000,1449.000000) scale(0.100000,-0.100000)"
fill="#000000" stroke="none">
<path d="M5948 14416 c-81 -40 -309 -175 -533 -314 -1020 -632 -1924 -1085
-2550 -1277 -66 -20 -131 -40 -145 -45 -106 -38 -729 -150 -1395 -250 -543
-82 -611 -93 -665 -107 -57 -15 -100 -37 -100 -53 0 -30 93 -72 419 -191 193
-70 230 -88 231 -111 0 -4 -31 -30 -69 -58 -164 -119 -251 -292 -251 -499 0
-63 -4 -103 -13 -115 -9 -13 -61 -26 -197 -52 -231 -43 -358 -77 -383 -102
-20 -20 -72 -215 -102 -377 -8 -44 -28 -145 -44 -225 -52 -251 -91 -501 -111
-710 -18 -186 -24 -817 -11 -1080 19 -381 68 -756 141 -1090 10 -47 28 -129
40 -182 27 -123 93 -358 158 -558 27 -85 69 -218 92 -295 23 -77 48 -150 56
-162 8 -12 23 -46 35 -75 11 -29 29 -62 40 -73 10 -12 24 -36 31 -55 14 -43
68 -130 68 -112 0 7 -6 25 -14 40 -15 29 -74 195 -171 482 -34 102 -72 208
-85 235 -96 216 -233 774 -304 1235 -16 105 -29 250 -36 400 -5 129 -15 305
-21 390 -14 184 -7 757 11 940 20 215 81 588 126 780 50 211 95 384 108 408
23 44 67 78 126 95 124 37 333 85 402 93 89 10 93 16 79 108 -13 89 -8 135 25
228 54 154 129 252 257 335 68 45 86 77 50 90 -80 27 -415 173 -466 203 -28
17 -35 25 -27 35 20 25 127 45 266 51 76 3 177 12 224 20 106 17 100 18 100
-5 0 -28 12 -35 165 -91 160 -60 207 -81 212 -95 4 -12 -32 -36 -289 -195
-240 -148 -283 -189 -317 -304 -24 -81 -23 -111 5 -212 10 -34 31 -69 66 -108
29 -33 47 -61 42 -66 -17 -16 -369 -108 -531 -139 -89 -17 -179 -38 -199 -48
l-37 -18 -19 -109 c-10 -59 -29 -157 -42 -216 -13 -59 -38 -196 -55 -306 -17
-109 -36 -224 -41 -254 -5 -31 -17 -128 -25 -215 -8 -88 -20 -212 -26 -275 -6
-63 -11 -268 -11 -455 0 -460 22 -709 112 -1240 30 -174 104 -515 119 -544 5
-9 12 -34 16 -56 4 -22 15 -65 25 -95 10 -30 30 -95 45 -145 152 -502 329
-935 572 -1409 40 -78 73 -147 73 -154 0 -18 -16 -12 -194 70 -243 112 -231
112 -239 16 -2 -35 -4 -1095 -3 -2356 1 -2470 -2 -2322 50 -2302 12 4 77 35
146 68 69 32 136 63 150 67 14 4 52 20 85 35 117 54 597 238 690 264 33 10 87
28 120 41 95 36 371 121 570 175 44 12 107 30 140 41 179 58 636 157 955 207
486 76 482 76 531 30 168 -160 406 -371 574 -508 24 -19 102 -84 175 -145 72
-60 160 -132 195 -160 202 -161 566 -444 665 -517 63 -47 144 -109 180 -137
79 -62 103 -64 162 -15 23 20 104 82 178 137 74 56 178 135 231 176 53 42 170
134 260 205 194 154 459 374 692 575 93 80 195 169 227 196 32 28 98 87 148
132 49 44 99 86 110 92 49 26 637 -70 1087 -178 270 -65 317 -78 405 -104 47
-14 110 -33 140 -41 306 -81 731 -227 1120 -386 96 -39 213 -85 260 -102 47
-17 141 -57 209 -89 123 -59 168 -70 176 -46 2 6 6 211 9 455 2 244 7 446 10
449 17 18 22 -38 28 -355 6 -260 11 -348 20 -354 10 -6 10 -8 1 -8 -7 0 -10
-6 -7 -14 3 -8 0 -25 -6 -37 -10 -18 -10 -24 3 -34 17 -12 22 -125 6 -125 -5
0 -9 -25 -9 -56 0 -47 3 -57 20 -61 13 -3 20 -14 20 -29 0 -13 5 -34 11 -47
14 -30 -3 -69 -26 -61 -16 6 -45 -17 -45 -36 0 -8 -7 -9 -17 -5 -10 4 -33 11
-52 15 -50 12 -70 50 -27 50 14 0 27 4 30 8 3 5 -14 6 -37 3 -23 -4 -51 -5
-62 -4 -38 4 -126 40 -148 61 -12 11 -31 22 -42 24 -13 2 -21 12 -22 28 0 14
-1 33 -2 42 -1 15 -5 16 -24 7 -20 -9 -34 -6 -82 20 -32 17 -63 35 -69 40 -6
5 -31 14 -55 21 -24 6 -54 23 -67 37 -13 14 -27 23 -30 20 -8 -8 -60 27 -96
65 -24 25 -32 27 -82 24 -39 -3 -59 0 -67 10 -9 11 -7 14 10 14 11 0 21 5 21
10 0 6 -6 10 -14 10 -8 0 -16 4 -18 10 -2 5 -18 13 -37 16 -26 6 -33 4 -29 -7
2 -7 15 -16 29 -20 22 -6 22 -7 5 -14 -14 -6 -119 5 -196 20 -3 0 -23 5 -45 9
-46 10 -61 12 -133 22 -58 7 -73 19 -47 38 17 12 17 13 0 20 -12 4 -22 1 -27
-9 -12 -20 -51 -19 -94 1 -36 17 -46 50 -19 60 17 7 10 24 -9 24 -8 0 -16 -9
-19 -20 -6 -22 -59 -40 -65 -22 -2 7 -7 10 -12 7 -11 -7 -176 42 -222 66 -20
10 -44 19 -52 19 -9 0 -16 9 -16 20 0 17 -7 20 -45 20 -25 0 -62 7 -82 15 -19
8 -43 15 -51 15 -9 0 -25 11 -37 25 -14 19 -30 26 -57 27 -21 1 -38 5 -38 10
0 4 5 8 10 8 12 0 9 22 -5 32 -16 12 -32 9 -49 -8 -14 -14 -21 -13 -68 11 -51
26 -56 26 -188 21 -74 -3 -147 -9 -161 -12 -15 -3 -55 3 -92 15 -37 11 -74 18
-83 14 -11 -4 -22 1 -31 13 -11 15 -17 16 -31 7 -20 -12 -69 -7 -89 9 -7 6
-24 7 -38 4 -17 -4 -27 -2 -31 8 -4 11 -29 14 -110 15 -57 0 -113 5 -123 11
-26 13 -71 13 -71 -1 0 -6 -8 -9 -17 -7 -12 2 -18 13 -18 28 0 18 -5 24 -15
21 -8 -3 -29 -5 -46 -6 -23 0 -44 -14 -90 -59 -32 -32 -71 -64 -86 -72 -16 -8
-28 -20 -28 -27 0 -6 -16 -23 -36 -36 -20 -14 -62 -49 -95 -78 -33 -29 -64
-53 -69 -53 -6 0 -10 -8 -10 -18 0 -10 -15 -26 -35 -36 -19 -10 -76 -59 -127
-108 -51 -49 -108 -101 -127 -116 -19 -15 -46 -39 -60 -53 -14 -14 -36 -31
-48 -38 -13 -6 -23 -18 -23 -26 0 -8 -10 -19 -21 -26 -40 -21 -114 -81 -203
-165 -48 -46 -94 -84 -101 -84 -8 0 -23 -14 -35 -30 -12 -17 -27 -30 -34 -30
-7 0 -24 -9 -37 -20 -86 -73 -134 -110 -140 -110 -4 0 -27 -16 -51 -35 -23
-19 -47 -39 -53 -43 -5 -4 -30 -24 -55 -43 -84 -68 -240 -169 -260 -169 -10 0
-37 12 -58 27 -65 46 -201 146 -241 178 -21 17 -60 46 -86 65 -27 19 -60 46
-75 60 -15 14 -51 43 -80 65 -29 22 -83 65 -119 96 -36 30 -85 68 -108 83 -23
15 -44 33 -46 40 -3 6 -24 25 -48 41 -51 34 -85 63 -146 122 -24 23 -69 60
-99 84 -30 23 -61 50 -67 58 -7 9 -43 43 -82 76 -60 51 -296 264 -360 326 -12
10 -26 19 -32 19 -6 0 -18 11 -26 23 -9 13 -32 39 -53 58 -21 19 -69 65 -107
103 l-68 68 -62 -5 c-34 -3 -102 -11 -152 -18 -49 -6 -101 -11 -115 -11 -42 2
-240 -27 -325 -48 -44 -10 -125 -26 -180 -36 -55 -9 -125 -23 -155 -30 -30 -8
-93 -21 -140 -29 -73 -12 -158 -32 -275 -65 -16 -4 -83 -22 -147 -39 -64 -17
-176 -51 -250 -76 -73 -25 -160 -55 -193 -65 -261 -84 -434 -152 -635 -251
-69 -33 -161 -75 -205 -91 -44 -17 -107 -41 -140 -53 -33 -12 -130 -56 -215
-98 -221 -107 -302 -127 -353 -87 -39 31 -74 99 -87 169 -14 76 -17 626 -10
1676 5 818 -9 2047 -21 1820 -13 -234 -31 -786 -32 -960 -1 -433 14 -2774 19
-2802 6 -40 35 -57 83 -49 56 9 287 86 481 161 96 37 288 105 425 151 138 45
329 110 425 143 508 175 684 224 1115 310 409 82 699 123 885 125 124 1 150
-2 179 -18 19 -10 116 -96 215 -190 203 -193 296 -274 374 -323 63 -41 173
-129 347 -278 300 -258 484 -414 550 -467 39 -31 148 -120 244 -197 196 -158
247 -189 283 -170 13 6 86 62 163 124 77 61 205 163 285 226 259 205 551 448
710 589 85 76 196 173 246 217 114 97 300 261 419 369 137 124 154 134 239
134 75 0 82 -1 356 -50 263 -46 553 -111 810 -181 295 -81 917 -291 1239 -420
373 -149 379 -152 698 -311 287 -143 332 -158 369 -128 15 14 16 33 9 230 -6
180 -12 1771 -14 4135 0 281 5 654 11 830 14 385 14 483 -1 498 -8 8 -28 3
-76 -21 -36 -18 -70 -32 -75 -32 -18 0 -11 27 25 97 19 37 50 115 69 173 19
58 46 132 61 164 14 33 37 92 50 130 13 39 30 89 39 111 68 178 101 271 121
335 76 243 145 549 175 780 11 85 34 254 50 375 44 319 49 382 56 670 7 271
-4 586 -31 890 -39 431 -153 1083 -214 1221 -12 26 -31 49 -49 58 -16 8 -112
41 -213 72 -184 56 -273 94 -289 123 -4 9 -13 50 -20 91 -39 249 -94 349 -269
488 -23 18 -39 38 -35 43 16 27 159 86 418 174 87 29 162 59 167 67 25 39 -11
64 -162 113 -140 45 -175 52 -332 70 -73 8 -240 33 -372 56 -132 22 -314 51
-405 65 -91 13 -194 28 -230 34 -112 16 -289 48 -446 79 -514 103 -1232 408
-1944 826 -96 57 -263 150 -370 208 -209 112 -407 227 -695 403 -389 238 -502
294 -592 294 -36 0 -69 -11 -135 -44z m-288 -251 c0 -9 -47 -48 -97 -81 -90
-58 -351 -214 -358 -214 -4 0 -20 -9 -36 -21 -45 -32 -219 -119 -219 -109 0 5
8 11 19 15 10 3 32 18 49 33 16 15 46 38 66 52 20 14 58 41 84 60 26 19 59 42
73 50 39 23 85 51 149 92 125 78 270 145 270 123z m638 -447 c439 -262 554
-329 677 -398 72 -40 150 -84 175 -97 25 -14 119 -67 210 -118 509 -285 1151
-601 1495 -737 111 -44 290 -107 375 -131 150 -43 200 -59 205 -66 5 -9 -150
-53 -255 -71 -36 -6 -85 -16 -110 -21 -160 -32 -147 -33 -219 5 -93 48 -307
169 -365 205 -26 17 -53 31 -58 31 -5 0 -24 11 -42 25 -21 16 -46 25 -69 25
-44 0 -47 -13 -12 -54 57 -67 15 -62 -56 7 -32 30 -62 51 -72 49 -24 -5 -21
-16 18 -68 34 -45 43 -64 28 -64 -27 0 -329 242 -533 426 -66 60 -109 87 -126
80 -22 -8 -8 -45 31 -81 17 -16 44 -49 58 -72 14 -23 31 -44 37 -48 5 -3 10
-16 10 -27 0 -11 7 -26 16 -32 13 -10 20 -28 23 -58 1 -5 6 -8 13 -8 16 0 48
-31 48 -47 0 -17 -51 -6 -63 14 -4 7 -13 13 -20 13 -7 0 -59 49 -117 108 -58
60 -113 111 -122 115 -10 3 -18 16 -18 27 0 11 -5 20 -11 20 -6 0 -124 114
-263 253 -247 248 -336 330 -336 307 0 -32 124 -207 196 -277 24 -24 44 -47
44 -51 0 -5 30 -40 68 -79 103 -108 112 -119 112 -141 0 -15 5 -19 20 -15 14
4 21 -1 26 -21 3 -14 12 -26 20 -26 9 0 14 -11 14 -31 0 -28 2 -31 25 -25 22
6 25 3 25 -20 0 -28 51 -84 77 -84 12 0 13 -8 8 -40 -7 -42 0 -51 19 -24 13
17 46 10 46 -11 0 -10 31 -50 71 -90 11 -11 48 -50 101 -107 21 -22 41 -37 46
-34 5 3 18 -2 30 -10 16 -11 21 -21 16 -40 -6 -22 -3 -24 30 -24 29 0 36 -4
36 -20 0 -13 13 -26 37 -37 20 -10 38 -23 40 -28 2 -6 -25 -17 -59 -24 -35 -8
-71 -20 -80 -28 -24 -21 -53 -8 -85 36 -39 54 -142 181 -173 212 -14 15 -34
39 -45 53 -45 61 -106 116 -128 116 -38 1 -97 65 -333 360 -355 444 -407 505
-425 495 -16 -10 -4 -57 26 -105 14 -22 25 -46 25 -54 0 -8 5 -18 10 -21 6 -3
10 -15 10 -26 0 -11 7 -31 16 -44 11 -17 14 -36 10 -56 -3 -19 -2 -28 4 -24 6
4 17 -1 26 -9 18 -19 64 -131 64 -158 0 -10 10 -29 23 -44 12 -14 51 -90 87
-169 36 -79 73 -152 83 -162 17 -20 25 -69 8 -59 -4 3 -6 -5 -4 -17 3 -15 11
-23 26 -22 26 0 27 -2 27 -55 0 -33 -3 -40 -19 -40 -37 0 -51 -12 -51 -41 0
-35 6 -36 36 -8 l23 21 15 -37 c20 -48 21 -44 -16 -59 -40 -17 -58 -11 -58 20
0 13 -5 24 -10 24 -17 0 -32 50 -20 65 8 9 6 14 -5 19 -14 5 -85 141 -85 162
0 4 -15 39 -34 78 -18 39 -39 86 -46 104 -7 17 -16 32 -20 32 -4 0 -6 25 -4
55 1 30 -1 55 -7 55 -5 0 -9 -15 -9 -34 0 -57 -24 -56 -54 1 -9 18 -16 39 -16
48 0 8 -9 24 -19 34 -11 11 -17 22 -14 25 3 3 -2 17 -11 30 -9 14 -16 31 -16
37 0 7 -6 20 -13 28 -7 9 -19 34 -26 56 -8 22 -28 72 -46 110 -17 39 -40 93
-51 120 -10 28 -33 80 -51 118 -18 37 -33 71 -33 76 0 8 -82 183 -99 211 -5 8
-12 23 -15 33 -3 9 -10 17 -16 17 -14 0 -6 -136 10 -155 10 -12 30 -74 50
-155 4 -19 18 -60 29 -90 12 -30 21 -66 21 -80 0 -14 7 -38 16 -55 9 -16 17
-55 18 -85 2 -41 7 -56 19 -58 19 -4 37 -49 48 -117 14 -91 36 -162 61 -197
10 -14 10 -22 1 -37 -10 -16 -8 -22 12 -41 15 -14 24 -34 24 -54 0 -64 2 -75
12 -82 6 -3 9 1 7 11 -2 10 2 20 8 22 17 6 54 -87 58 -145 2 -35 9 -57 20 -65
10 -7 18 -27 18 -45 1 -18 5 -35 10 -38 16 -10 8 -53 -12 -59 -11 -3 -20 -12
-20 -19 0 -24 14 -27 31 -5 9 12 21 19 28 15 20 -13 12 -53 -13 -70 -13 -8
-27 -29 -31 -45 -7 -33 -40 -50 -58 -32 -11 11 -34 101 -56 216 -6 28 -15 75
-21 105 -6 30 -15 89 -19 130 -4 41 -12 84 -19 95 -17 30 -62 69 -62 54 0 -8
-6 -7 -18 4 -28 26 -31 21 -25 -39 6 -58 -22 -214 -39 -214 -4 0 -8 39 -8 86
0 47 -5 94 -10 105 -6 10 -15 44 -21 75 -6 30 -19 64 -30 75 -11 11 -19 33
-19 52 0 17 -5 48 -10 67 -6 19 -13 85 -15 145 -5 123 -37 291 -58 313 -24 23
-31 -123 -32 -643 -1 -258 -3 -488 -5 -510 -2 -22 0 -55 5 -74 9 -43 -2 -51
-82 -51 -63 0 -74 7 -50 32 24 24 26 45 6 62 -14 12 -17 21 -11 34 5 9 8 98 6
197 -4 173 -15 260 -49 375 -9 30 -15 127 -18 285 -3 132 -9 248 -12 258 -23
58 -59 -64 -75 -253 -11 -131 -36 -291 -52 -325 -5 -11 -7 -38 -4 -60 13 -113
18 -265 8 -265 -12 0 -32 85 -32 137 0 20 -5 53 -12 74 -9 33 -15 39 -38 39
-28 0 -55 21 -43 33 3 4 15 7 25 7 10 0 18 6 18 14 0 8 7 16 15 20 17 6 21 56
5 56 -5 0 -10 -11 -10 -25 0 -18 -5 -25 -20 -25 -16 0 -19 6 -18 43 4 93 -2
137 -17 137 -8 0 -15 -7 -15 -16 0 -8 4 -13 9 -9 6 3 9 -27 8 -75 -1 -47 -6
-79 -12 -77 -5 2 -8 21 -7 43 3 54 -10 73 -32 43 -9 -13 -16 -33 -16 -44 0
-24 -16 -52 -25 -43 -7 7 7 84 28 148 8 25 27 90 42 145 31 113 53 182 65 207
5 9 21 65 36 125 14 59 32 112 40 116 8 4 14 19 14 33 0 13 11 56 24 94 15 41
21 72 15 76 -5 3 -7 21 -3 41 5 26 4 34 -5 29 -10 -7 -171 -327 -171 -341 0
-9 -70 -174 -90 -215 -10 -19 -30 -66 -44 -105 -15 -38 -39 -95 -55 -125 -16
-30 -34 -72 -41 -92 -7 -23 -23 -44 -41 -55 -16 -10 -29 -21 -29 -25 0 -4 -11
-8 -25 -8 -16 0 -25 -6 -25 -15 0 -17 -2 -18 -24 -9 -10 4 -16 18 -16 40 0 35
16 46 26 19 4 -8 10 -12 15 -9 12 7 12 54 -1 54 -20 0 -30 37 -17 69 6 17 15
31 19 31 4 0 10 17 14 38 11 61 32 94 55 87 14 -5 19 -2 19 13 0 11 -7 22 -15
26 -19 7 -19 35 0 42 8 4 22 1 30 -6 13 -11 14 -8 9 18 -4 19 0 38 10 55 9 13
16 29 15 33 -2 9 -1 14 20 74 18 51 18 64 -1 68 -24 5 -121 -96 -254 -264 -18
-21 -125 -156 -239 -299 -211 -266 -354 -441 -413 -506 -19 -20 -39 -47 -45
-59 -18 -36 -37 -37 -37 -2 0 24 -5 31 -24 34 -14 3 -29 1 -34 -4 -13 -13 8
-55 32 -66 17 -7 16 -10 -13 -42 -17 -19 -31 -38 -31 -43 0 -12 -63 3 -72 16
-10 16 2 31 15 18 6 -6 18 -11 26 -11 14 1 13 3 -1 14 -10 7 -18 19 -18 25 0
7 -5 21 -10 31 -10 19 -11 19 -29 1 -11 -11 -21 -30 -23 -43 -2 -17 -10 -24
-32 -26 -51 -6 -55 15 -11 58 22 21 49 50 60 65 67 86 235 269 252 273 7 2 13
8 13 14 0 5 30 45 68 89 45 53 73 77 85 75 13 -3 17 2 17 24 0 28 24 48 35 30
4 -6 14 -10 23 -10 16 1 16 2 0 14 -25 18 -22 31 9 56 15 11 35 34 45 51 15
24 23 29 41 24 18 -5 19 -4 7 5 -13 9 -12 13 8 29 12 11 22 23 22 28 1 20 48
65 61 58 9 -6 11 -3 6 8 -3 10 -2 17 3 17 6 0 10 7 10 15 0 8 7 15 15 15 8 0
15 5 15 11 0 6 14 24 30 41 17 16 30 35 30 43 0 7 9 15 20 18 12 3 20 14 20
25 0 12 9 23 20 27 11 3 20 12 20 20 0 7 6 20 13 27 39 40 62 98 38 98 -4 0
-115 -105 -245 -232 -130 -128 -242 -238 -248 -244 -26 -23 -97 -106 -102
-120 -3 -8 -11 -14 -18 -14 -8 0 -25 -12 -40 -27 -14 -16 -44 -46 -67 -68 -23
-22 -50 -53 -59 -68 -9 -15 -27 -30 -40 -34 -12 -3 -27 -14 -33 -24 -11 -22
-29 -25 -29 -5 0 8 -6 16 -12 19 -9 2 -1 19 23 48 19 24 43 62 54 84 27 60 65
114 84 120 9 3 27 14 41 25 l25 19 -27 10 c-44 17 -88 -6 -210 -109 -61 -52
-119 -102 -128 -110 -25 -25 -190 -162 -242 -202 -67 -52 -91 -49 -48 5 12 15
22 42 24 60 2 19 8 43 15 54 9 18 8 21 -6 19 -10 -2 -26 -18 -36 -37 -19 -36
-73 -89 -89 -89 -6 0 -18 -10 -28 -22 -27 -34 -32 -18 -8 29 17 33 28 43 54
48 30 5 32 8 21 25 -14 23 -35 26 -43 7 -2 -7 -19 -14 -37 -15 -17 -2 -49 -14
-69 -27 -20 -14 -104 -59 -185 -101 -81 -42 -182 -96 -223 -119 -96 -53 -136
-69 -156 -61 -9 3 -79 13 -157 22 -77 8 -166 22 -196 30 -31 9 -71 19 -89 24
-66 16 -54 30 48 55 99 24 279 83 435 143 145 55 162 62 258 106 32 14 60 26
62 26 36 0 1003 488 1173 592 34 21 64 38 67 38 2 0 62 32 132 72 70 39 163
90 206 114 44 24 84 47 90 52 7 6 46 28 87 50 41 22 116 65 165 96 50 30 126
76 170 101 44 25 150 88 235 139 93 56 166 95 183 95 20 1 88 -34 215 -111z
m1205 -95 c61 -20 118 -56 207 -132 71 -61 82 -73 73 -81 -3 -3 -8 1 -10 8 -3
6 -10 12 -16 12 -7 0 -46 17 -87 38 -160 81 -260 150 -238 163 17 11 11 12 71
-8z m337 -228 c10 -12 10 -15 -3 -15 -8 0 -20 7 -27 15 -10 12 -10 15 3 15 8
0 20 -7 27 -15z m-4265 -404 c-6 -5 -32 -21 -60 -35 -27 -15 -57 -31 -65 -36
-26 -15 -262 -118 -345 -150 -198 -78 -439 -145 -612 -170 -37 -5 -140 -21
-228 -35 -272 -43 -458 -63 -440 -47 35 31 385 121 690 177 44 8 125 29 180
46 55 16 125 37 155 45 58 16 118 36 235 79 39 14 90 32 115 41 25 8 59 21 75
29 25 11 131 38 230 59 39 8 79 6 70 -3z m5065 -1 c12 -8 9 -10 -12 -10 -15 0
-30 5 -33 10 -8 13 25 13 45 0z m169 -64 c131 -46 277 -95 331 -111 25 -7 59
-18 75 -24 112 -40 282 -91 350 -106 44 -9 133 -30 197 -46 65 -16 146 -29
180 -29 35 -1 95 -5 133 -10 39 -6 126 -14 195 -20 108 -8 293 -35 475 -70 64
-12 373 -57 445 -65 58 -7 247 -53 315 -78 22 -8 40 -20 40 -27 0 -9 -34 -24
-85 -40 -47 -15 -103 -36 -125 -47 -22 -12 -60 -26 -85 -33 -25 -6 -72 -24
-105 -40 -33 -16 -91 -42 -130 -60 -63 -28 -84 -43 -85 -61 0 -3 28 -23 62
-44 76 -48 188 -157 215 -210 58 -113 80 -243 62 -357 -15 -94 -11 -101 74
-117 34 -7 91 -19 127 -26 36 -8 90 -17 120 -20 30 -4 86 -20 125 -36 38 -16
75 -29 82 -29 25 0 60 -23 76 -49 14 -25 80 -324 112 -512 8 -46 25 -149 39
-229 43 -249 48 -298 56 -545 4 -132 15 -316 25 -410 30 -306 -3 -834 -65
-1019 -27 -83 -70 -354 -70 -446 0 -41 -9 -122 -19 -180 -11 -58 -29 -159 -40
-225 -14 -77 -54 -220 -112 -400 -50 -154 -100 -309 -111 -345 -11 -36 -29
-90 -39 -120 -11 -30 -33 -93 -48 -140 -16 -47 -56 -147 -90 -223 -72 -162
-82 -226 -43 -265 49 -49 65 -128 38 -181 -13 -24 -13 -31 0 -56 10 -19 14
-63 14 -156 0 -85 4 -130 11 -135 9 -5 10 -44 6 -138 -4 -72 -7 -158 -8 -191
-1 -43 -3 -52 -8 -31 -5 25 -8 27 -19 14 -16 -20 -26 -274 -11 -284 14 -8 30
16 24 36 -2 8 0 22 5 30 13 20 13 -121 0 -210 -20 -146 -40 -243 -53 -263 -35
-55 -38 -104 -28 -398 6 -157 14 -296 20 -310 5 -14 10 -81 11 -150 3 -165 2
-181 -10 -174 -7 4 -10 -74 -10 -227 0 -296 -18 -865 -29 -903 -16 -61 -20
337 -20 1867 0 857 -2 1562 -6 1568 -13 21 -67 9 -157 -34 -123 -58 -257 -116
-268 -116 -6 0 -10 11 -10 24 0 35 73 122 109 129 15 3 31 14 35 23 5 13 1 15
-19 12 -14 -3 -25 -2 -25 3 0 16 23 59 32 59 5 0 13 11 18 25 11 30 20 31 43
5 28 -33 35 -23 30 43 -10 103 -7 126 15 156 12 16 24 42 28 57 4 16 13 38 19
49 7 11 23 52 36 90 12 39 30 79 39 90 29 37 75 152 129 322 34 108 61 137 61
66 0 -28 3 -34 11 -26 9 9 9 23 -1 56 -7 26 -9 59 -5 78 9 43 47 129 57 129 5
0 8 19 8 43 0 52 33 154 66 202 17 25 22 44 18 61 -4 15 0 34 10 49 9 13 16
37 16 53 0 16 10 55 21 88 12 32 22 73 24 89 3 42 15 104 28 143 10 29 13 31
23 17 11 -15 13 -14 19 4 3 11 0 29 -6 39 -10 16 -9 30 4 72 9 29 17 60 17 70
0 9 9 27 20 40 24 27 26 50 5 50 -9 0 -15 -10 -16 -22 0 -13 -3 -18 -6 -11 -2
7 7 50 20 95 14 46 28 108 31 138 3 30 10 89 16 130 6 41 10 113 9 160 -1 120
-2 119 21 90 17 -23 19 -23 26 -7 4 10 1 29 -6 42 -16 30 -10 219 8 237 15 15
16 55 1 60 -7 2 -14 119 -20 353 -9 374 -22 582 -38 630 -5 17 -12 77 -15 135
-11 176 -65 506 -146 885 -11 50 -22 104 -25 121 -11 57 -11 57 -325 125 -47
10 -112 23 -145 30 -173 34 -287 64 -292 76 -3 7 13 30 35 51 62 57 85 112 90
213 3 64 0 100 -12 137 -32 95 -73 132 -326 301 -129 86 -239 159 -245 163
-19 14 19 37 140 84 151 58 195 81 195 99 0 18 -12 21 -145 41 -141 21 -191
29 -295 49 -47 8 -128 22 -180 30 -52 8 -138 24 -190 35 -154 34 -190 40 -279
51 -227 26 -507 105 -747 209 -148 64 -225 99 -244 111 -8 5 -23 12 -32 15
-20 7 -24 24 -6 24 6 0 54 -15 107 -34z m-3494 -295 c-14 -13 -16 -13 -11 -1
3 8 9 24 13 35 7 19 7 19 11 1 2 -10 -4 -26 -13 -35z m15 -91 c0 -5 -7 -10
-15 -10 -8 0 -15 5 -15 10 0 6 7 10 15 10 8 0 15 -4 15 -10z m-3632 -55 c-10
-10 -112 -23 -128 -16 -9 4 0 8 25 12 54 8 110 10 103 4z m4000 -22 c-9 -11
-13 -50 -14 -117 0 -56 -5 -121 -12 -146 -6 -25 -15 -67 -21 -95 -28 -140 -50
-218 -65 -233 -16 -16 -19 -16 -37 7 -10 13 -19 29 -19 36 0 8 -12 28 -26 45
-29 34 -27 42 12 44 24 1 28 7 42 61 8 33 21 64 28 68 9 5 14 26 14 54 0 26
-3 44 -6 41 -5 -5 -28 -83 -39 -131 -2 -10 -7 -28 -11 -40 -6 -20 -7 -20 -19
3 -16 29 -10 64 16 106 10 17 19 45 19 62 0 17 9 52 20 78 11 26 23 73 27 106
6 60 14 70 33 41 10 -17 12 -16 32 9 12 15 25 25 30 22 5 -3 3 -13 -4 -21z
m-455 -38 c-3 -9 -8 -14 -10 -11 -3 3 -2 9 2 15 9 16 15 13 8 -4z m110 -104
c-3 -14 -17 -39 -30 -54 -12 -16 -23 -37 -23 -47 0 -22 -20 -70 -29 -70 -3 0
-23 18 -43 40 -21 22 -38 33 -38 25 0 -7 5 -17 10 -20 16 -10 11 -44 -10 -65
-24 -24 -26 -56 -5 -64 11 -4 17 3 21 23 5 24 37 51 59 51 12 0 3 -43 -16 -75
l-22 -37 -56 6 c-31 3 -66 7 -78 8 -28 4 -30 29 -5 54 9 10 17 25 18 35 1 10
9 35 19 56 9 21 26 58 37 83 38 87 41 91 50 78 4 -7 8 -21 8 -30 0 -10 6 -18
13 -18 20 0 40 17 33 28 -3 6 6 20 20 31 24 19 28 19 50 5 19 -13 22 -22 17
-43z m-943 41 c0 -4 -16 -23 -35 -42 -39 -38 -47 -25 -13 20 20 28 48 40 48
22z m2726 -219 c3 -10 14 -35 25 -55 19 -37 19 -37 -1 -48 -32 -17 -61 3 -54
39 4 16 1 32 -5 35 -6 4 -11 16 -11 27 0 24 39 26 46 2z m2704 -198 c0 -25
-25 -85 -35 -85 -3 0 -24 12 -46 27 -48 31 -47 53 1 70 59 20 80 17 80 -12z
m-7386 0 c20 -8 36 -21 36 -29 0 -12 -67 -66 -83 -66 -11 0 -37 58 -37 85 0
30 27 33 84 10z m-684 -153 c0 -4 -5 -13 -12 -20 -17 -17 -2 -27 17 -12 9 7
18 11 20 8 7 -6 -105 -95 -195 -155 -109 -73 -118 -77 -146 -64 -49 22 -31 44
121 143 144 94 195 120 195 100z m8631 -29 c26 -15 31 -16 39 -3 11 18 19 14
169 -83 125 -81 140 -97 115 -122 -25 -25 -44 -15 -248 124 -62 43 -116 86
-116 93 0 12 9 10 41 -9z m-5681 -88 c102 -9 210 -13 242 -10 76 9 93 -2 117
-78 10 -34 60 -181 111 -327 50 -146 98 -290 106 -321 15 -54 14 -57 -9 -100
-23 -43 -213 -375 -326 -571 -31 -53 -69 -120 -84 -149 l-29 -52 -101 6 c-284
18 -549 42 -553 50 0 1 -35 94 -77 207 -42 113 -108 288 -146 390 l-71 184
178 318 c97 174 186 334 197 355 12 21 32 58 45 82 l25 43 95 -5 c52 -3 178
-13 280 -22z m-828 -53 c66 -38 72 -45 59 -71 -11 -19 -15 -20 -36 -9 -29 16
-145 127 -145 139 0 9 28 -4 122 -59z m3711 40 c9 -10 27 -37 39 -60 13 -23
66 -112 118 -199 52 -86 100 -165 105 -175 6 -9 50 -83 99 -164 49 -80 89
-152 89 -158 0 -12 -41 -114 -110 -271 -42 -96 -52 -120 -110 -255 -25 -58
-55 -127 -67 -155 -12 -27 -33 -75 -47 -106 l-24 -56 -80 -7 c-44 -3 -219 -9
-390 -12 l-310 -6 -69 108 c-38 60 -111 172 -161 249 -50 77 -109 168 -131
203 -21 34 -69 108 -105 165 l-66 102 24 65 c13 36 32 85 43 110 11 25 36 88
56 140 83 218 146 378 165 421 l21 46 326 7 c180 5 363 11 407 15 138 13 161
13 178 -7z m847 -22 c-23 -33 -126 -120 -141 -120 -12 0 -29 43 -20 51 3 4 26
18 51 31 25 14 61 35 80 46 48 29 55 27 30 -8z m-46 -787 c25 -216 29 -306 17
-435 -29 -309 -75 -509 -172 -747 -37 -88 -133 -278 -174 -341 -16 -25 -30
-47 -31 -48 -1 -2 -48 6 -103 19 -112 25 -105 18 -115 114 -5 47 -14 121 -52
427 -17 138 -13 162 38 256 10 18 18 37 18 42 0 5 14 39 30 75 17 36 30 68 30
71 0 3 11 29 24 57 38 81 91 203 130 301 20 49 40 94 45 100 5 6 12 22 16 36
4 14 16 44 28 67 l20 42 76 4 c42 1 97 4 123 5 l46 2 6 -47z m-2709 -18 c72
-3 193 -7 270 -10 77 -3 187 -8 243 -11 l104 -6 55 -87 c31 -47 94 -145 142
-218 47 -73 113 -174 145 -225 33 -51 88 -137 123 -190 34 -54 63 -102 63
-107 0 -4 -21 -42 -47 -83 -63 -98 -63 -99 -126 -203 -30 -49 -76 -125 -103
-168 -27 -44 -81 -131 -119 -195 l-71 -117 -119 -8 c-66 -4 -295 -6 -510 -5
l-390 3 -59 105 c-33 58 -71 126 -85 152 -14 25 -51 90 -82 145 -86 148 -98
169 -161 282 l-58 104 76 136 c42 75 83 146 90 158 13 21 37 62 65 114 8 13
23 40 35 59 11 19 54 94 94 165 40 72 86 152 103 178 l30 49 81 -6 c45 -3 140
-8 211 -11z m-1800 -170 c26 -71 60 -164 75 -206 16 -42 33 -85 39 -95 5 -11
19 -46 30 -79 10 -33 37 -107 59 -165 38 -101 45 -136 92 -445 10 -66 28 -172
38 -235 11 -63 17 -118 14 -121 -4 -4 -19 -9 -34 -13 -24 -5 -30 0 -71 67
-126 203 -245 523 -282 757 -9 58 -23 149 -32 204 -11 73 -14 143 -10 270 4
166 11 216 27 199 4 -4 29 -66 55 -138z m4995 -221 c36 -13 77 -24 91 -24 15
0 53 -12 85 -26 82 -36 130 -57 194 -83 30 -13 69 -29 85 -37 17 -7 48 -20 70
-29 22 -9 83 -35 135 -57 52 -22 133 -55 180 -75 47 -19 99 -41 115 -48 17 -7
57 -24 90 -38 33 -14 110 -45 171 -70 61 -25 139 -57 175 -71 35 -13 102 -41
149 -61 47 -20 128 -54 180 -75 52 -21 140 -57 195 -80 55 -24 172 -73 260
-109 88 -37 171 -73 184 -80 39 -22 6 -29 -94 -20 -250 22 -562 -39 -845 -165
-149 -67 -196 -98 -210 -140 -14 -44 -44 -70 -195 -171 -146 -98 -165 -113
-165 -131 0 -23 34 -24 181 -9 164 17 170 19 222 53 l38 25 182 -6 c210 -7
356 -21 477 -47 90 -19 92 -19 269 11 123 21 221 25 221 9 0 -12 -18 -25 -174
-120 -246 -153 -389 -263 -574 -444 -201 -197 -383 -428 -500 -639 -18 -31
-46 -82 -63 -112 -16 -30 -34 -68 -39 -85 -11 -40 5 -40 67 2 82 55 97 63 143
87 84 44 357 150 436 170 124 32 301 61 425 70 145 11 148 9 124 -85 -51 -211
-179 -615 -246 -779 -150 -365 -197 -470 -220 -491 -18 -16 -22 -16 -67 8 -26
14 -96 45 -157 68 -60 23 -132 50 -159 61 -27 10 -57 19 -67 19 -29 0 -151 47
-160 62 -14 22 17 29 141 29 66 1 120 3 120 5 0 10 -69 36 -145 54 -82 19
-299 41 -353 35 -130 -13 -230 -29 -264 -41 -50 -17 -62 -10 -28 17 75 60 367
180 542 223 77 19 208 21 393 6 106 -9 140 -16 196 -40 70 -31 99 -37 99 -20
0 10 -24 27 -148 107 -132 85 -424 198 -670 258 -215 53 -268 65 -332 75 -108
18 -133 25 -143 42 -16 25 11 94 57 147 39 46 97 159 177 346 79 188 184 373
292 518 104 139 106 144 100 220 -3 37 -9 67 -12 67 -3 0 -22 -8 -41 -18 -19
-11 -75 -36 -125 -57 -49 -22 -104 -48 -122 -59 -17 -12 -51 -32 -74 -46 -74
-43 -356 -339 -398 -417 -32 -60 -121 -280 -140 -348 -6 -22 -19 -49 -27 -60
-15 -19 -16 -14 -11 65 8 110 63 336 128 525 35 102 95 252 114 287 18 31 20
74 4 84 -6 3 -34 -9 -62 -28 -29 -20 -87 -54 -130 -77 -91 -49 -210 -126 -263
-169 -78 -64 -124 -50 -124 37 0 25 -7 105 -16 176 -8 72 -19 173 -24 225 -6
52 -19 169 -29 259 -11 91 -17 170 -14 177 8 23 47 23 168 3 66 -11 163 -26
215 -33 52 -8 114 -19 138 -25 23 -7 47 -9 52 -6 15 9 12 56 -6 90 -9 17 -24
53 -34 80 -24 64 -118 292 -135 325 -7 14 -33 68 -58 120 -139 291 -188 385
-202 385 -12 0 -51 69 -107 192 -21 46 -16 69 11 57 9 -3 45 -17 81 -30z
m-6416 -342 c7 -12 -5 -27 -34 -42 -13 -7 -69 -46 -125 -86 -55 -41 -149 -110
-210 -154 -60 -44 -128 -93 -150 -110 -154 -117 -195 -152 -195 -161 0 -14 45
-9 207 20 179 32 200 11 69 -69 -80 -48 -244 -197 -303 -275 -215 -283 -242
-323 -328 -495 -41 -81 -118 -262 -134 -315 -7 -22 -23 -67 -36 -100 -13 -33
-30 -87 -38 -120 -47 -186 -46 -176 -30 -182 9 -4 22 -2 29 3 223 157 343 216
589 292 245 75 578 102 764 62 126 -27 145 -39 59 -40 -87 0 -331 -36 -366
-54 -15 -7 -45 -17 -66 -20 -92 -17 -328 -125 -481 -221 -175 -109 -385 -279
-385 -311 0 -16 12 -12 136 47 108 51 256 106 384 143 318 92 366 100 625 101
162 0 231 -4 260 -14 77 -26 370 -159 430 -194 174 -103 266 -194 267 -266 1
-62 96 -153 322 -306 40 -27 88 -58 105 -67 62 -34 40 -43 -134 -54 -138 -8
-334 -48 -395 -79 -14 -7 -45 -21 -70 -30 -140 -55 -365 -186 -474 -277 -21
-18 -50 -40 -63 -49 -56 -37 -246 -216 -326 -306 -108 -123 -174 -207 -279
-356 -46 -64 -84 -113 -86 -109 -5 16 110 235 167 317 61 88 218 271 302 351
185 177 509 395 774 520 50 24 100 53 110 64 18 20 18 20 -12 20 -69 0 -383
-69 -495 -110 -32 -11 -66 -20 -76 -20 -9 0 -27 -7 -40 -15 -12 -9 -27 -15
-34 -14 -17 3 -48 -10 -77 -33 -13 -10 -38 -18 -55 -18 -20 0 -36 -7 -44 -20
-7 -11 -20 -20 -29 -20 -9 0 -25 -7 -35 -17 -15 -13 -23 -14 -44 -4 -31 14
-47 6 -39 -20 7 -21 -6 -24 -36 -8 -12 6 -28 8 -36 5 -14 -6 -14 -9 2 -26 18
-19 11 -26 -19 -21 -5 1 -15 -8 -23 -19 -12 -16 -24 -21 -52 -18 -23 2 -35 -1
-34 -9 3 -14 -103 -85 -129 -87 -11 -1 -27 -12 -37 -25 -12 -15 -29 -24 -49
-25 -25 -1 -31 -5 -26 -19 3 -11 -1 -19 -13 -23 -10 -3 -25 -10 -33 -15 -8 -5
-24 -13 -35 -18 -11 -5 -29 -18 -39 -30 -11 -11 -30 -21 -43 -21 -12 0 -23 -6
-23 -13 0 -15 -78 -77 -96 -77 -8 0 -18 -9 -24 -19 -5 -11 -20 -23 -32 -26
-13 -4 -35 -20 -50 -36 -23 -24 -28 -26 -39 -13 -10 12 -5 24 26 69 91 132
353 376 540 502 99 67 334 196 436 241 124 54 326 123 459 156 57 15 109 31
115 37 18 19 -209 3 -345 -25 -156 -32 -349 -84 -387 -104 -11 -6 -38 -16 -59
-21 -55 -13 -170 -55 -186 -68 -7 -6 -24 -14 -38 -18 -14 -4 -66 -32 -117 -61
-90 -53 -123 -65 -123 -43 0 6 -6 9 -12 6 -7 -2 -12 -13 -10 -24 2 -15 -4 -22
-23 -27 -15 -4 -44 -18 -66 -31 -21 -14 -50 -25 -64 -25 -22 0 -25 -4 -20 -20
7 -23 -6 -26 -35 -8 -25 16 -38 3 -22 -22 10 -17 5 -23 -52 -55 -34 -19 -70
-35 -78 -35 -9 0 -18 -6 -21 -14 -3 -7 -20 -24 -37 -36 l-32 -23 11 22 c28 52
151 192 235 269 201 182 490 349 791 457 141 51 175 65 175 76 0 15 -44 19
-100 9 -30 -5 -82 -14 -115 -20 -33 -5 -91 -16 -130 -25 -38 -8 -78 -15 -88
-15 -10 0 -26 -7 -34 -16 -12 -12 -27 -14 -54 -10 -27 4 -38 2 -43 -9 -3 -8
-15 -15 -26 -15 -11 0 -19 -5 -18 -11 2 -5 -42 -26 -96 -45 -55 -19 -107 -41
-116 -49 -9 -8 -20 -12 -23 -8 -4 3 -16 -3 -27 -15 -12 -12 -26 -22 -33 -22
-7 0 -30 -14 -51 -30 -22 -17 -45 -30 -51 -30 -7 0 -20 -9 -31 -21 -33 -37
-94 -62 -119 -51 -24 11 -35 7 -35 -14 0 -7 8 -10 20 -7 11 3 20 0 20 -6 0 -6
-6 -11 -13 -11 -7 0 -17 -10 -22 -22 -14 -30 -33 -34 -37 -7 -2 12 -9 25 -17
27 -11 4 -13 -4 -8 -37 3 -27 1 -44 -7 -49 -7 -4 -18 -17 -25 -29 -16 -31 -26
-29 -50 13 -26 43 -20 75 19 107 15 13 31 33 34 45 4 12 46 61 94 110 235 240
666 432 1127 501 192 29 289 51 277 63 -21 21 -164 29 -402 23 -135 -4 -279
-11 -320 -16 -41 -5 -104 -13 -140 -18 -122 -16 -404 -86 -505 -126 -33 -13
-100 -38 -150 -56 -49 -18 -121 -51 -159 -72 l-70 -40 -22 26 c-12 15 -27 50
-33 79 -33 171 -52 256 -115 502 -46 180 -78 417 -105 776 -16 202 -15 502 2
522 6 9 102 53 212 98 110 44 234 96 275 115 41 19 100 44 130 55 30 12 75 30
100 40 25 10 131 50 235 89 105 40 235 91 290 115 238 103 304 131 365 153 73
25 77 26 84 15z m-147 -912 c25 -74 31 -191 10 -208 -20 -17 -322 -18 -347 -2
-12 9 12 36 125 145 169 163 178 165 212 65z m5558 32 c54 -12 81 -23 83 -34
7 -37 -253 -318 -402 -433 -163 -126 -436 -289 -536 -320 -14 -4 -47 -17 -75
-29 -27 -12 -70 -28 -95 -35 -25 -7 -54 -17 -65 -22 -30 -12 -147 -41 -151
-36 -6 6 317 321 351 343 17 10 48 32 71 49 22 16 53 39 68 50 15 11 68 49
116 85 48 36 132 97 185 135 53 39 126 93 163 120 100 76 196 144 202 144 3 0
41 -8 85 -17z m-3536 -29 c25 -21 48 -40 51 -43 5 -5 89 -74 134 -110 10 -8
53 -44 96 -80 91 -76 89 -75 204 -165 49 -39 102 -82 118 -97 16 -16 34 -28
41 -28 7 0 26 -13 42 -28 22 -20 249 -211 284 -239 2 -2 2 -5 -1 -8 -2 -3 -42
11 -89 31 -284 118 -529 283 -744 498 -123 124 -250 280 -240 297 13 20 60 7
104 -28z m2095 -145 c39 -35 87 -77 106 -95 19 -17 95 -84 169 -150 74 -65
136 -123 138 -128 2 -6 -86 -99 -194 -207 l-198 -197 -115 -11 c-210 -21 -264
-23 -365 -11 -380 44 -404 50 -475 109 -30 26 -57 50 -60 53 -3 4 -35 31 -71
60 -76 61 -209 174 -276 234 l-45 40 22 25 c12 14 40 47 63 74 23 27 84 98
136 158 l93 108 500 0 500 0 72 -62z m-3919 -222 c33 -15 105 -44 160 -63 137
-47 234 -100 324 -175 27 -23 -8 -20 -61 5 -107 49 -225 88 -353 117 -139 31
-419 28 -497 -4 -21 -9 -64 -16 -97 -16 -32 0 -119 -10 -193 -21 -197 -32
-224 -34 -231 -15 -9 22 12 39 110 88 181 90 323 118 593 115 180 -2 187 -3
245 -31z m1655 -1996 c504 -169 651 -200 948 -200 61 0 112 -3 112 -8 0 -19
-102 -99 -218 -172 -22 -14 -47 -37 -55 -53 -16 -27 -16 -28 11 -38 18 -7 124
-9 307 -6 294 4 354 12 740 87 55 11 125 24 155 30 345 63 368 66 387 47 15
-14 15 -18 0 -41 -31 -47 -18 -66 46 -66 17 0 44 4 61 10 17 5 69 21 116 36
47 14 103 32 125 39 22 7 81 23 130 35 50 11 117 28 150 36 162 39 331 56 640
65 171 4 337 12 370 18 134 23 408 -53 655 -181 l125 -65 3 -73 c2 -42 -2 -78
-8 -84 -16 -16 -12 -55 10 -73 21 -18 26 -71 10 -108 -7 -16 -9 -13 -9 17 -1
42 -9 68 -22 68 -5 0 -8 -3 -7 -7 0 -5 -2 -16 -7 -26 -4 -9 -4 -30 0 -45 16
-63 17 -112 3 -112 -8 0 -20 6 -27 13 -11 10 -12 8 -7 -10 5 -17 2 -23 -16
-29 -13 -4 -36 -17 -51 -30 -35 -29 -72 -32 -65 -6 6 22 -14 42 -43 42 l-23 0
22 -20 c33 -31 28 -54 -15 -69 -21 -8 -54 -27 -73 -42 -39 -33 -60 -37 -60
-13 0 15 -2 15 -22 2 -15 -10 -55 -15 -115 -17 -50 -1 -106 -6 -125 -11 -18
-6 -49 -10 -68 -10 -19 -1 -46 -7 -60 -15 -33 -19 -50 -19 -50 0 0 21 -95 21
-103 1 -6 -15 -102 -40 -118 -30 -5 3 -9 14 -9 25 0 23 -45 27 -53 5 -7 -18 1
-26 26 -26 10 0 17 -5 15 -12 -6 -18 -147 -33 -170 -19 -23 15 -25 14 -31 -8
-6 -25 -58 -36 -87 -19 -18 10 -24 10 -27 1 -3 -7 -17 -13 -31 -13 l-27 1 24
13 c27 15 17 25 -30 31 -45 6 -82 -11 -74 -34 4 -15 0 -20 -22 -23 -15 -3 -36
-9 -45 -13 -15 -6 -18 -2 -18 18 0 17 -7 28 -20 32 -32 10 -24 41 18 65 20 12
41 28 45 36 10 18 27 18 27 0 0 -17 22 -26 60 -26 16 0 30 -4 32 -10 2 -5 26
-12 53 -16 l50 -6 -25 21 c-15 12 -40 21 -61 21 -28 0 -38 5 -42 19 -3 11 -22
27 -42 36 -37 15 -37 16 -20 35 15 16 16 22 5 36 -17 20 -61 13 -154 -27 -39
-17 -86 -34 -105 -38 -73 -18 -168 -43 -231 -61 -36 -10 -110 -28 -165 -40
-55 -12 -124 -28 -154 -37 -30 -8 -88 -21 -130 -28 -42 -8 -119 -23 -171 -34
-125 -27 -508 -87 -640 -101 -450 -47 -812 -65 -1135 -57 -211 6 -263 1 -240
-22 6 -5 115 -58 243 -117 134 -62 232 -113 232 -121 0 -24 -393 -16 -830 17
-291 22 -805 106 -1082 176 -79 20 -161 40 -183 45 -22 4 -64 17 -93 29 -29
11 -59 20 -67 20 -25 0 -125 41 -120 49 7 13 124 52 515 173 36 11 88 29 115
39 28 10 172 57 320 104 149 48 302 97 340 110 39 13 191 63 339 111 148 47
280 93 295 100 14 8 32 14 39 14 6 0 12 5 12 10 0 6 -31 10 -72 10 -80 0 -180
-15 -453 -64 -47 -9 -124 -23 -172 -32 -134 -24 -442 -98 -622 -150 -97 -28
-91 -27 -91 -13 0 40 229 251 457 420 72 54 134 103 138 109 18 30 -43 15
-206 -49 -99 -39 -184 -69 -190 -66 -28 18 123 175 241 253 82 54 274 152 365
186 39 15 93 38 120 51 64 32 96 29 255 -25z m6327 -484 c34 -16 72 -39 84
-52 23 -24 23 -24 5 -82 -26 -87 -57 -151 -77 -157 -10 -3 -53 1 -96 9 -150
28 -329 41 -563 40 -278 -1 -456 -20 -535 -59 -43 -21 -52 -22 -64 -10 -19 19
-25 106 -9 126 40 48 256 138 420 174 170 38 229 43 513 41 l260 -3 62 -27z
m-862 -347 c125 -18 260 -48 425 -96 71 -20 261 -101 279 -118 11 -11 6 -26
-35 -94 -27 -45 -54 -81 -60 -81 -7 0 -20 -12 -30 -27 -10 -16 -19 -23 -22
-15 -5 17 -47 15 -62 -3 -18 -22 -26 -20 -115 25 -44 22 -102 45 -130 52 -27
7 -57 17 -65 24 -8 7 -35 14 -60 17 -25 3 -97 15 -160 26 -200 35 -311 22
-184 -21 238 -80 444 -178 583 -275 74 -52 80 -64 56 -109 -38 -72 -63 -88
-197 -132 -118 -39 -201 -57 -290 -64 -35 -2 -40 1 -94 70 -31 40 -61 72 -66
72 -6 0 -33 20 -61 44 -66 56 -182 120 -203 112 -12 -5 1 -25 59 -86 42 -44
99 -115 127 -157 59 -89 63 -122 15 -135 -43 -11 -53 -5 -118 73 -92 109 -249
223 -345 248 -24 7 -46 19 -49 27 -6 15 58 99 111 144 56 48 80 60 108 54 14
-3 43 -7 65 -9 88 -9 153 -28 261 -77 100 -45 159 -80 336 -201 137 -94 -19
98 -175 215 -96 72 -181 118 -305 167 -54 22 -100 44 -102 50 -2 6 14 33 36
59 61 74 72 95 80 158 7 58 7 59 45 65 20 3 40 9 44 12 13 13 161 6 298 -14z
m-2310 -359 c3 -11 13 -20 21 -20 8 0 14 -4 14 -10 0 -13 -26 -13 -67 2 -33
12 -43 32 -20 41 26 11 46 6 52 -13z m-69 -44 c21 -22 17 -28 -18 -24 -22 2
-34 9 -36 21 -4 21 33 24 54 3z m2914 -66 c0 -5 -4 -10 -10 -10 -5 0 -10 5
-10 10 0 6 5 10 10 10 6 0 10 -4 10 -10z m-1722 -52 c-3 -7 -22 -18 -44 -25
-21 -6 -84 -25 -139 -42 -116 -35 -362 -124 -420 -151 -22 -11 -72 -30 -110
-44 -39 -13 -97 -36 -130 -50 -33 -14 -72 -26 -88 -26 -24 0 -27 3 -21 24 3
14 1 33 -4 43 -10 16 -12 15 -21 -10 -10 -27 -12 -27 -33 -13 -37 26 -71 19
-121 -24 -25 -22 -52 -40 -60 -40 -9 0 -18 -4 -21 -9 -3 -4 -26 -14 -51 -21
-38 -11 -50 -20 -65 -51 -12 -23 -20 -57 -19 -86 1 -26 -2 -91 -6 -144 -9
-128 -5 -135 83 -141 38 -3 74 -8 81 -12 6 -4 11 -27 11 -51 0 -34 -5 -47 -19
-55 -11 -5 -76 -10 -145 -10 -160 0 -156 -4 -155 140 1 60 -3 115 -7 122 -5 7
-7 43 -5 79 2 42 -2 74 -10 87 -13 20 -13 20 -46 -8 -18 -16 -48 -31 -68 -35
-19 -3 -51 -7 -70 -10 -28 -5 -39 -13 -55 -45 -20 -40 -28 -143 -12 -166 12
-18 72 -34 128 -34 l54 0 0 -55 c0 -51 -2 -56 -27 -66 -47 -18 -181 -6 -236
22 -53 26 -99 88 -111 149 -4 19 -13 44 -21 54 -15 19 -15 19 -38 -2 -24 -22
-40 -21 -31 3 3 7 -4 14 -18 17 -36 6 -60 -2 -54 -18 3 -8 -10 -28 -30 -47
-20 -17 -62 -57 -93 -89 -82 -83 -125 -101 -225 -96 -109 5 -167 33 -203 97
-14 25 -33 57 -41 70 l-15 25 -18 -23 c-11 -13 -19 -34 -19 -48 0 -45 -27 -79
-79 -102 -43 -18 -69 -21 -183 -21 -73 0 -139 4 -146 9 -11 6 -14 60 -13 255
0 136 3 251 6 256 4 6 70 10 151 10 125 0 150 -3 184 -20 54 -27 70 -77 46
-146 -24 -73 -22 -84 18 -84 38 0 72 33 82 79 11 53 44 110 80 138 36 27 41
28 158 28 120 0 122 0 171 -33 57 -37 116 -57 125 -41 6 9 41 19 80 23 8 0 17
4 20 8 3 4 22 10 43 12 27 4 39 1 45 -11 10 -17 32 -10 32 12 0 21 95 64 165
74 35 5 70 13 77 18 7 4 47 11 88 16 113 11 126 13 138 21 7 4 14 -3 18 -19 5
-22 11 -25 49 -25 23 0 57 -3 74 -6 42 -9 41 12 -1 48 -28 23 -31 29 -18 38 8
6 29 10 45 9 17 -1 42 4 57 11 19 9 34 10 56 2 35 -12 82 -5 89 14 3 8 18 14
34 14 16 0 29 4 29 8 0 8 86 32 111 32 6 0 3 -7 -6 -16 -15 -15 -15 -18 5 -39
12 -13 18 -28 14 -38 -3 -10 -1 -17 4 -17 6 0 14 10 18 22 12 38 44 62 44 33
0 -21 8 -19 35 13 l24 27 -22 17 c-12 9 -19 19 -16 23 15 14 167 35 219 29 47
-5 62 -2 103 20 27 15 52 24 56 22 4 -3 38 4 76 15 39 11 97 26 130 34 33 8
96 23 140 34 97 23 118 25 113 9z m-1118 -228 c0 -5 -15 -10 -32 -9 -28 0 -30
2 -13 9 28 12 45 12 45 0z m140 -176 c6 -14 10 -106 10 -204 0 -204 3 -213 68
-203 59 9 62 18 62 204 0 92 3 174 6 183 5 12 21 16 74 16 38 0 72 -4 75 -10
3 -5 8 -72 11 -147 3 -105 0 -156 -12 -213 -22 -101 -27 -108 -91 -137 -49
-23 -64 -25 -142 -20 -176 10 -211 60 -211 301 0 65 -5 136 -11 157 -17 57 5
87 68 92 27 2 56 4 66 5 11 1 21 -8 27 -24z m724 -8 c48 -20 66 -51 66 -115 0
-37 -6 -64 -21 -87 l-21 -34 26 -30 c30 -36 40 -83 33 -148 -6 -54 -35 -83
-103 -102 -47 -13 -287 -11 -301 3 -13 13 -17 471 -4 496 9 16 23 21 69 24
142 9 224 6 256 -7z m-4066 -36 c5 -55 -14 -71 -91 -79 -36 -4 -69 -10 -73
-14 -9 -8 -8 -63 1 -77 3 -5 29 -10 56 -10 65 0 89 -13 89 -49 0 -39 -16 -49
-80 -53 -68 -4 -80 -22 -80 -124 0 -79 -4 -84 -77 -84 -62 0 -63 6 -63 269 0
174 3 240 12 249 9 9 53 12 158 10 l145 -3 3 -35z m212 -160 l5 -195 56 -3
c89 -5 92 3 90 198 -1 98 3 168 9 180 15 29 114 29 130 1 6 -12 10 -92 10
-193 0 -147 -3 -179 -19 -214 -37 -81 -107 -110 -236 -100 -90 8 -129 26 -162
76 -22 31 -23 42 -23 235 0 111 3 205 7 209 4 4 34 6 68 4 l60 -3 5 -195z
m743 176 c53 -26 77 -77 77 -164 0 -60 -4 -75 -30 -113 -16 -24 -30 -52 -30
-61 0 -10 15 -47 32 -83 38 -76 33 -85 -42 -85 -66 0 -89 17 -124 90 -23 48
-36 65 -51 65 -18 0 -21 -8 -25 -67 -3 -36 -9 -70 -13 -75 -15 -14 -138 -8
-148 8 -14 23 -11 483 4 498 9 9 51 11 162 9 123 -2 157 -6 188 -22z m4198
-666 c140 -14 274 -39 295 -55 17 -12 17 -18 0 -131 -48 -302 -43 -293 -143
-276 -138 23 -315 33 -418 22 -55 -5 -103 -10 -107 -10 -19 0 -38 -36 -38 -69
0 -64 10 -69 160 -85 289 -32 428 -83 534 -195 84 -90 116 -190 116 -355 -1
-131 -22 -235 -68 -330 -102 -213 -243 -266 -707 -266 -239 0 -334 7 -515 36
-106 18 -130 27 -130 52 0 28 60 355 70 380 12 27 39 28 139 7 133 -28 338
-39 478 -26 142 12 153 18 153 81 0 62 -14 70 -125 80 -333 29 -451 65 -559
168 -52 50 -102 144 -116 221 -13 70 -13 268 1 350 35 219 163 352 380 395 90
17 448 21 600 6z m-6043 -45 c124 -29 201 -86 244 -180 21 -45 23 -65 23 -190
-1 -118 -4 -148 -21 -191 -28 -68 -65 -116 -125 -160 -27 -20 -49 -40 -49 -45
0 -5 29 -23 65 -41 124 -60 182 -134 210 -265 54 -253 -25 -468 -204 -556
l-66 -32 -540 -3 c-503 -3 -540 -2 -552 14 -17 23 -19 1614 -3 1645 10 18 26
19 483 19 381 0 484 -3 535 -15z m1050 3 c9 -9 12 -160 12 -620 l0 -607 22
-12 c15 -8 59 -10 140 -6 142 6 187 23 205 77 9 25 12 190 12 601 1 507 3 567
17 573 9 3 125 6 259 6 231 0 245 -1 255 -19 13 -25 13 -932 0 -1116 -24 -344
-136 -503 -393 -563 -104 -24 -550 -24 -654 0 -211 49 -325 167 -375 388 -20
90 -22 127 -25 688 -3 450 -2 597 8 608 15 19 498 21 517 2z m2241 -2 c9 -11
7 -48 -9 -157 -28 -189 -36 -229 -46 -239 -5 -5 -108 -10 -229 -11 -121 -1
-230 -6 -242 -10 -22 -8 -23 -14 -23 -102 0 -59 4 -97 12 -105 9 -9 69 -12
211 -12 117 0 206 -4 218 -10 18 -10 19 -23 19 -188 0 -125 -4 -182 -12 -190
-9 -9 -70 -12 -214 -12 -171 0 -205 -2 -218 -16 -14 -13 -16 -55 -16 -303 0
-210 -3 -290 -12 -299 -17 -17 -499 -17 -516 0 -17 17 -17 1639 0 1656 19 19
1061 17 1077 -2z m1260 5 c15 -10 28 -56 135 -476 76 -296 214 -830 261 -1010
14 -55 31 -112 37 -128 22 -55 13 -57 -277 -57 -220 0 -265 2 -275 15 -7 8
-23 61 -36 117 -14 56 -32 110 -41 120 -14 16 -36 18 -213 18 -175 0 -199 -2
-212 -17 -9 -10 -26 -65 -38 -123 -12 -58 -27 -111 -32 -117 -8 -10 -75 -13
-273 -13 -225 0 -264 2 -275 15 -11 13 -7 40 23 153 50 185 208 796 263 1015
73 291 123 468 135 483 9 12 82 14 408 14 218 0 402 -4 410 -9z m-2504 -1980
c-6 -6 -39 -20 -75 -33 -93 -33 -92 -47 12 -135 255 -214 538 -380 791 -462
106 -35 140 -35 209 1 23 11 48 16 62 12 18 -4 25 -1 29 15 3 12 11 21 19 21
7 0 38 14 68 30 30 16 74 39 97 50 23 11 55 31 71 45 15 13 50 35 78 50 27 14
65 38 84 54 19 15 46 34 60 41 14 7 30 20 36 29 11 13 15 14 38 2 19 -11 26
-21 24 -42 -1 -15 3 -33 9 -41 9 -10 7 -18 -7 -35 -20 -25 -40 -29 -57 -12 -8
8 -14 5 -23 -11 -6 -12 -9 -24 -6 -28 8 -8 -35 -52 -51 -52 -7 0 -13 5 -13 10
0 6 -7 10 -15 10 -19 0 -8 -28 13 -32 13 -3 10 -9 -13 -31 -22 -20 -36 -26
-54 -22 -18 5 -22 3 -18 -9 5 -13 -21 -40 -123 -130 -45 -39 -79 -52 -101 -38
-10 7 -19 8 -19 3 0 -5 7 -12 16 -15 13 -5 14 -9 3 -22 -21 -26 -51 -38 -59
-24 -9 14 -40 6 -40 -10 0 -5 9 -10 20 -10 29 0 24 -16 -10 -30 -16 -7 -36
-23 -45 -36 -9 -14 -20 -22 -26 -18 -6 3 -19 -2 -30 -12 -15 -14 -24 -15 -42
-7 -15 7 -29 8 -38 2 -11 -8 -9 -13 11 -30 l25 -21 -25 -16 c-14 -9 -42 -33
-62 -54 -21 -21 -42 -38 -48 -38 -19 0 -92 55 -329 244 -225 181 -461 378
-556 465 -28 25 -91 82 -140 126 -156 140 -225 208 -225 222 0 7 12 14 28 14
15 1 81 5 147 9 193 11 310 11 300 1z m1910 -41 c30 -5 51 -5 53 1 2 5 13 9
24 9 36 0 -66 -88 -110 -95 -52 -9 -62 -13 -62 -25 0 -13 27 -13 35 0 4 6 11
8 16 4 12 -7 -29 -54 -47 -54 -7 0 -14 5 -16 12 -7 21 -30 -3 -24 -26 4 -17
-3 -31 -24 -51 -29 -28 -30 -28 -50 -10 -18 16 -20 16 -26 1 -9 -23 -66 -22
-62 2 1 9 -1 22 -5 29 -9 15 32 61 58 65 14 2 20 -2 19 -15 -2 -13 4 -17 19
-15 28 4 34 28 8 35 -29 7 -26 17 13 50 33 27 34 29 21 60 -8 19 -22 33 -37
36 -42 8 146 -5 197 -13z m-221 -269 c7 -10 -18 -34 -27 -25 -7 8 3 34 13 34
5 0 11 -4 14 -9z m4539 -1264 c3 -7 3 -25 0 -39 -5 -29 -28 -28 -50 1 -9 13
-8 20 4 34 19 20 39 22 46 4z"/>
<path d="M6370 12976 c0 -8 5 -18 10 -21 6 -3 10 3 10 14 0 12 -4 21 -10 21
-5 0 -10 -6 -10 -14z"/>
<path d="M5427 12815 c-4 -8 -2 -17 3 -20 6 -4 10 3 10 14 0 25 -6 27 -13 6z"/>
<path d="M4696 12804 c-11 -7 -17 -16 -15 -19 3 -3 14 2 25 9 10 8 17 17 14
19 -3 3 -14 -1 -24 -9z"/>
<path d="M4655 12759 c-11 -17 1 -21 15 -4 8 9 8 15 2 15 -6 0 -14 -5 -17 -11z"/>
<path d="M6391 12715 c-1 -21 -4 -26 -10 -16 -6 9 -10 1 -13 -25 -3 -22 -2
-43 3 -48 10 -12 32 64 26 94 -4 22 -4 22 -6 -5z"/>
<path d="M5782 12690 c0 -14 2 -19 5 -12 2 6 2 18 0 25 -3 6 -5 1 -5 -13z"/>
<path d="M5390 12669 c0 -5 5 -7 10 -4 6 3 10 8 10 11 0 2 -4 4 -10 4 -5 0
-10 -5 -10 -11z"/>
<path d="M6482 12635 c0 -16 2 -22 5 -12 2 9 2 23 0 30 -3 6 -5 -1 -5 -18z"/>
<path d="M7287 12613 c-4 -3 -7 -13 -7 -20 0 -12 3 -12 15 1 8 8 15 17 15 20
0 8 -15 7 -23 -1z"/>
<path d="M6434 12599 c-6 -8 -7 -27 -4 -44 5 -23 8 -26 14 -13 4 9 6 29 4 44
-2 22 -5 24 -14 13z"/>
<path d="M6500 12566 c0 -20 5 -36 10 -36 6 0 10 13 10 29 0 17 -4 33 -10 36
-6 4 -10 -8 -10 -29z"/>
<path d="M4040 12532 c0 -5 12 -17 26 -27 17 -11 25 -13 22 -4 -5 16 -48 44
-48 31z"/>
<path d="M8020 12530 c0 -5 7 -10 15 -10 8 0 15 5 15 10 0 6 -7 10 -15 10 -8
0 -15 -4 -15 -10z"/>
<path d="M4767 12486 c-3 -8 1 -20 9 -26 12 -10 14 -8 14 14 0 28 -14 35 -23
12z"/>
<path d="M8080 12490 c0 -5 7 -10 15 -10 8 0 15 5 15 10 0 6 -7 10 -15 10 -8
0 -15 -4 -15 -10z"/>
<path d="M8212 12474 c9 -9 21 -13 28 -9 14 9 -5 25 -30 25 -12 0 -12 -3 2
-16z"/>
<path d="M8135 12450 c-4 -7 -3 -16 3 -22 6 -6 8 -16 6 -23 -3 -7 -1 -16 5
-20 6 -3 11 0 11 9 0 8 5 16 12 18 8 3 5 12 -9 27 -14 16 -23 19 -28 11z"/>
<path d="M4700 12428 c0 -7 4 -19 9 -26 7 -11 10 -10 15 3 3 9 4 21 0 26 -8
13 -24 11 -24 -3z"/>
<path d="M6882 12419 c2 -6 8 -10 13 -10 5 0 11 4 13 10 2 6 -4 11 -13 11 -9
0 -15 -5 -13 -11z"/>
<path d="M7408 12423 c7 -3 16 -2 19 1 4 3 -2 6 -13 5 -11 0 -14 -3 -6 -6z"/>
<path d="M6915 12358 c2 -54 28 -88 41 -54 6 15 -22 76 -34 76 -4 0 -8 -10 -7
-22z"/>
<path d="M4677 12343 c-3 -5 -2 -15 2 -22 7 -10 10 -10 16 -1 4 6 3 16 -3 22
-5 5 -12 6 -15 1z"/>
<path d="M4553 12257 c-37 -37 -62 -57 -73 -57 -5 0 -10 -5 -10 -12 0 -6 -10
-22 -21 -35 -19 -19 -20 -23 -6 -29 26 -10 52 0 56 21 4 25 87 105 104 101 7
-1 9 -1 5 1 -5 3 -8 11 -8 19 0 21 -22 17 -47 -9z"/>
<path d="M4640 12269 c0 -5 5 -7 10 -4 6 3 10 8 10 11 0 2 -4 4 -10 4 -5 0
-10 -5 -10 -11z"/>
<path d="M7590 12226 c0 -8 5 -18 10 -21 6 -3 10 3 10 14 0 12 -4 21 -10 21
-5 0 -10 -6 -10 -14z"/>
<path d="M6647 12183 c-13 -12 -7 -40 13 -58 11 -10 20 -24 20 -32 0 -7 5 -13
10 -13 15 0 12 26 -5 40 -8 7 -15 20 -15 29 0 21 -15 43 -23 34z"/>
<path d="M7684 12119 c-8 -14 21 -43 35 -35 7 5 7 13 -2 26 -13 23 -23 25 -33
9z"/>
<path d="M7725 12060 c3 -5 8 -10 11 -10 2 0 4 5 4 10 0 6 -5 10 -11 10 -5 0
-7 -4 -4 -10z"/>
<path d="M7750 12034 c0 -27 34 -54 66 -52 33 3 17 36 -27 57 l-39 19 0 -24z"/>
<path d="M11929 8448 c-8 -22 -8 -68 0 -68 6 0 11 16 11 35 0 19 -2 35 -5 35
-3 0 -5 -1 -6 -2z"/>
<path d="M11900 8203 c0 -18 -6 -33 -15 -37 -17 -6 -20 -33 -6 -55 6 -10 14 3
26 44 11 41 13 61 6 68 -8 8 -11 2 -11 -20z"/>
<path d="M11790 7745 c0 -14 5 -25 10 -25 6 0 10 11 10 25 0 14 -4 25 -10 25
-5 0 -10 -11 -10 -25z"/>
<path d="M11731 7455 c-6 -16 -16 -38 -21 -47 -13 -22 -13 -61 -1 -53 13 8 44
102 38 118 -3 6 -10 -1 -16 -18z"/>
<path d="M11662 7273 c5 -25 28 -28 28 -4 0 12 -6 21 -16 21 -9 0 -14 -7 -12
-17z"/>
<path d="M11618 7197 c-6 -16 1 -37 13 -37 12 0 12 37 0 44 -5 3 -11 0 -13 -7z"/>
<path d="M11581 6984 c0 -11 3 -14 6 -6 3 7 2 16 -1 19 -3 4 -6 -2 -5 -13z"/>
<path d="M11586 6931 c-4 -5 -2 -12 3 -15 5 -4 12 -2 15 3 4 5 2 12 -3 15 -5
4 -12 2 -15 -3z"/>
<path d="M11536 6895 c-3 -9 3 -19 14 -25 17 -9 20 -7 20 15 0 27 -24 35 -34
10z"/>
<path d="M11426 6585 c-3 -8 -1 -15 3 -15 5 0 11 7 15 15 3 8 1 15 -3 15 -5 0
-11 -7 -15 -15z"/>
<path d="M11450 6475 c-14 -30 -19 -85 -10 -85 9 0 32 88 27 102 -3 8 -10 1
-17 -17z"/>
<path d="M11346 6404 c-4 -11 1 -22 14 -31 26 -18 25 -27 -4 -56 -28 -29 -25
-67 5 -67 11 0 19 -5 19 -11 0 -5 4 -8 9 -5 4 3 6 18 3 32 -4 22 -2 26 11 21
20 -8 35 11 37 48 3 45 1 52 -11 32 -13 -22 -34 -8 -43 28 -7 28 -31 33 -40 9z"/>
<path d="M11297 6346 c-6 -16 2 -28 14 -20 12 7 11 34 0 34 -5 0 -11 -6 -14
-14z"/>
<path d="M11267 6243 c-23 -43 -21 -58 4 -34 13 12 19 28 17 43 -3 22 -4 22
-21 -9z"/>
<path d="M11310 6174 c0 -31 23 -28 28 4 2 15 -2 22 -12 22 -11 0 -16 -9 -16
-26z"/>
<path d="M11430 5961 c0 -6 5 -13 10 -16 6 -3 10 1 10 9 0 9 -4 16 -10 16 -5
0 -10 -4 -10 -9z"/>
<path d="M11275 5940 c-3 -5 1 -10 10 -10 9 0 13 5 10 10 -3 6 -8 10 -10 10
-2 0 -7 -4 -10 -10z"/>
<path d="M11116 5913 c-12 -12 -6 -33 9 -33 8 0 15 6 15 14 0 17 -14 28 -24
19z"/>
<path d="M11460 5813 c0 -12 5 -25 10 -28 13 -8 13 15 0 35 -8 12 -10 11 -10
-7z"/>
<path d="M11501 5348 c-1 -27 4 -48 9 -48 12 0 12 34 0 70 -7 20 -8 16 -9 -22z"/>
<path d="M11480 4923 c0 -26 16 -47 29 -39 7 5 7 14 -1 31 -13 29 -28 33 -28
8z"/>
<path d="M5630 12309 c0 -11 5 -17 10 -14 6 3 10 13 10 21 0 8 -4 14 -10 14
-5 0 -10 -9 -10 -21z"/>
<path d="M10200 8823 c-26 -10 -50 -36 -50 -55 0 -24 11 -23 70 7 56 28 67 55
23 54 -16 0 -35 -3 -43 -6z"/>
<path d="M1641 7341 c-9 -6 -10 -11 -2 -15 13 -8 31 1 31 15 0 11 -11 11 -29
0z"/>
<path d="M1572 7269 c2 -7 10 -15 17 -17 8 -3 12 1 9 9 -2 7 -10 15 -17 17 -8
3 -12 -1 -9 -9z"/>
<path d="M1485 7257 c-15 -19 -16 -37 -2 -37 22 0 40 18 34 34 -8 19 -18 20
-32 3z"/>
<path d="M1462 7194 c3 -17 21 -21 26 -6 1 5 -4 12 -13 16 -11 4 -15 1 -13
-10z"/>
<path d="M1338 7142 c-16 -10 -28 -22 -28 -28 0 -7 -12 -19 -26 -28 -18 -13
-24 -24 -22 -43 2 -15 8 -28 15 -30 9 -3 10 4 4 25 -8 26 -5 31 40 62 27 18
49 39 49 47 0 7 -1 13 -2 12 -2 0 -15 -8 -30 -17z"/>
<path d="M1845 6620 c-4 -6 5 -10 20 -10 15 0 24 4 20 10 -3 6 -12 10 -20 10
-8 0 -17 -4 -20 -10z"/>
<path d="M8405 6260 c-3 -6 5 -10 19 -10 14 0 28 5 31 10 3 6 -5 10 -19 10
-14 0 -28 -4 -31 -10z"/>
<path d="M8208 6222 c-21 -10 -38 -22 -38 -29 0 -7 -12 -10 -30 -8 -32 4 -38
-3 -18 -23 19 -19 37 -14 49 12 12 25 49 39 70 25 10 -6 7 -13 -12 -28 -23
-20 -23 -20 -3 -21 11 0 29 9 38 19 10 11 31 23 46 26 16 3 34 13 41 21 15 18
1 18 -44 -1 -46 -19 -47 -19 -47 5 0 23 -3 23 -52 2z"/>
<path d="M8065 6190 c-3 -5 3 -10 15 -10 12 0 18 5 15 10 -3 6 -10 10 -15 10
-5 0 -12 -4 -15 -10z"/>
<path d="M8002 6163 c-10 -4 -10 -8 -1 -19 13 -16 28 -18 49 -4 13 9 13 11 0
20 -16 11 -28 11 -48 3z"/>
<path d="M7950 6150 c0 -5 -16 -10 -35 -10 -19 0 -35 -4 -35 -9 0 -5 -19 -18
-43 -29 -40 -19 -60 -52 -31 -52 6 0 14 -6 17 -14 6 -14 65 -27 72 -16 3 4 23
10 45 14 30 5 40 11 40 24 0 10 3 22 7 26 10 10 11 46 1 46 -4 0 -8 7 -8 15 0
8 -7 15 -15 15 -8 0 -15 -4 -15 -10z m-14 -45 c24 -24 1 -55 -41 -55 -28 0
-35 4 -35 19 0 19 34 51 53 51 5 0 15 -7 23 -15z"/>
<path d="M7732 6043 c-6 -2 -10 -9 -7 -13 7 -11 35 -2 35 11 0 10 -8 10 -28 2z"/>
<path d="M8530 6031 c27 -22 75 -28 85 -10 10 15 6 17 -55 24 l-55 7 25 -21z"/>
<path d="M8360 6014 c0 -9 -9 -18 -20 -21 -29 -8 -25 -33 5 -33 18 0 25 5 25
20 0 13 7 20 20 20 13 0 20 -7 20 -20 0 -19 5 -21 62 -18 74 4 96 28 25 28
-55 0 -77 8 -77 26 0 9 -11 14 -30 14 -21 0 -30 -5 -30 -16z"/>
<path d="M7770 5973 c0 -13 5 -23 10 -23 13 0 13 11 0 30 -8 12 -10 11 -10 -7z"/>
<path d="M7900 5975 c0 -10 10 -15 30 -15 20 0 30 5 30 15 0 10 -10 15 -30 15
-20 0 -30 -5 -30 -15z"/>
<path d="M8590 5961 c0 -5 -11 -12 -25 -15 -14 -4 -25 -14 -25 -22 0 -12 6
-15 23 -9 12 3 35 10 52 14 42 10 47 41 6 41 -17 0 -31 -4 -31 -9z"/>
<path d="M7550 5901 c0 -10 -10 -25 -22 -33 -26 -17 -17 -38 17 -38 18 0 22 4
18 19 -3 14 3 24 24 34 l28 15 -28 11 c-37 14 -37 14 -37 -8z"/>
<path d="M8635 5870 c-4 -6 7 -10 24 -10 17 0 31 5 31 10 0 6 -11 10 -24 10
-14 0 -28 -4 -31 -10z"/>
<path d="M7800 5780 c0 -5 4 -10 9 -10 6 0 13 5 16 10 3 6 -1 10 -9 10 -9 0
-16 -4 -16 -10z"/>
<path d="M7950 5780 c0 -5 5 -10 10 -10 6 0 10 5 10 10 0 6 -4 10 -10 10 -5 0
-10 -4 -10 -10z"/>
<path d="M7744 5745 c26 -19 56 -19 56 0 0 11 -11 15 -37 15 -36 -1 -37 -2
-19 -15z"/>
<path d="M7396 5714 c-9 -23 -8 -24 19 -24 28 0 34 24 9 34 -21 8 -21 8 -28
-10z"/>
<path d="M7771 5318 c11 -20 30 -20 36 -1 2 6 -7 13 -21 15 -22 4 -24 3 -15
-14z"/>
<path d="M7720 5302 c-21 -10 -23 -32 -2 -32 21 0 36 11 40 28 2 13 -14 15
-38 4z"/>
<path d="M6907 5118 c-7 -25 0 -41 14 -33 12 8 12 42 0 49 -5 3 -11 -4 -14
-16z"/>
<path d="M5436 4964 c-18 -18 -20 -47 -6 -75 12 -22 59 -26 78 -7 20 20 14 65
-10 82 -28 20 -43 20 -62 0z"/>
<path d="M5966 4878 c-3 -17 -5 -33 -3 -34 8 -8 46 9 41 18 -4 6 -1 14 6 18
17 10 4 30 -19 30 -13 0 -21 -10 -25 -32z"/>
<path d="M6355 4887 c-23 -18 -14 -62 15 -70 42 -11 81 19 50 38 -5 3 -10 15
-10 26 0 22 -27 25 -55 6z"/>
<path d="M6005 4810 c-7 -21 0 -40 16 -40 12 0 12 47 0 55 -5 3 -12 -4 -16
-15z"/>
<path d="M5430 4739 c-19 -35 -5 -66 32 -72 37 -6 78 15 78 38 0 17 -56 55
-82 55 -10 0 -22 -9 -28 -21z"/>
<path d="M6010 4743 c0 -7 -9 -13 -20 -13 -11 0 -20 -4 -20 -10 0 -12 47 -14
54 -2 2 4 1 14 -5 22 -6 10 -9 11 -9 3z"/>
<path d="M8029 4949 c-17 -33 4 -71 38 -67 36 4 50 29 35 62 -15 33 -56 35
-73 5z"/>
<path d="M8034 4762 c-19 -12 -26 -50 -14 -72 10 -18 19 -21 63 -18 50 3 52 4
55 35 2 23 -3 35 -20 47 -24 17 -65 21 -84 8z"/>
<path d="M4912 4938 c-18 -18 -15 -93 4 -108 22 -19 66 -1 83 35 12 25 12 32
0 54 -16 29 -66 40 -87 19z"/>
<path d="M2777 3975 c-24 -24 -25 -196 0 -216 18 -15 120 -19 165 -6 37 10 58
54 58 121 0 44 -5 61 -24 83 -22 25 -31 28 -103 31 -64 3 -83 1 -96 -13z"/>
<path d="M2772 3328 c-8 -8 -12 -49 -12 -119 0 -138 1 -139 121 -139 151 0
195 36 187 153 -4 52 -9 64 -36 88 -31 28 -36 29 -140 29 -71 0 -112 -4 -120
-12z"/>
<path d="M7372 3793 c-5 -10 -29 -105 -53 -212 -51 -229 -54 -221 72 -221 90
0 109 5 109 30 0 19 -62 313 -81 383 -10 39 -32 49 -47 20z"/>
<path d="M6840 2005 c-26 -28 -20 -47 7 -23 10 9 24 13 31 11 11 -4 12 -1 3
16 -14 26 -13 26 -41 -4z"/>
<path d="M6700 1940 c0 -5 7 -7 15 -4 8 4 15 8 15 10 0 2 -7 4 -15 4 -8 0 -15
-4 -15 -10z"/>
<path d="M6643 1865 c-3 -9 -3 -18 -1 -21 9 -9 38 8 38 22 0 19 -29 18 -37 -1z"/>
<path d="M6542 1853 c-2 -40 9 -63 29 -63 18 0 20 4 14 33 -10 43 -41 65 -43
30z"/>
<path d="M6446 1794 c-7 -19 10 -44 31 -44 10 0 13 9 11 27 -3 32 -32 43 -42
17z"/>
<path d="M6370 1754 c-8 -9 -9 -14 -2 -14 6 0 17 -3 26 -6 10 -4 16 -1 16 9 0
21 -26 29 -40 11z"/>
<path d="M6494 1740 c-13 -5 -12 -8 5 -24 15 -14 23 -15 40 -6 46 24 9 49 -45
30z"/>
<path d="M6290 1682 c0 -5 11 -19 26 -32 21 -21 27 -22 34 -10 21 32 12 50
-25 50 -19 0 -35 -4 -35 -8z"/>
<path d="M6196 1664 c-9 -24 -9 -24 27 -24 40 0 51 8 36 27 -16 18 -56 16 -63
-3z"/>
<path d="M6290 1600 c0 -5 5 -10 10 -10 6 0 10 5 10 10 0 6 -4 10 -10 10 -5 0
-10 -4 -10 -10z"/>
<path d="M7080 2270 c-13 -8 -12 -10 3 -10 9 0 17 5 17 10 0 12 -1 12 -20 0z"/>
<path d="M7126 2271 c-11 -4 -15 -10 -10 -13 14 -9 65 3 58 13 -6 11 -22 11
-48 0z"/>
<path d="M7045 2210 c-3 -5 -1 -10 4 -10 6 0 11 5 11 10 0 6 -2 10 -4 10 -3 0
-8 -4 -11 -10z"/>
<path d="M510 6184 c-11 -12 -11 -38 -1 -137 11 -104 17 -260 32 -847 5 -179
16 145 19 521 1 202 6 372 10 379 6 10 20 11 61 3 l53 -11 -34 29 c-19 15 -56
40 -81 54 -42 22 -48 23 -59 9z"/>
<path d="M737 6103 c-13 -12 -7 -33 8 -33 8 0 15 9 15 20 0 20 -11 26 -23 13z"/>
<path d="M543 4910 c0 -30 2 -43 4 -27 2 15 2 39 0 55 -2 15 -4 2 -4 -28z"/>
<path d="M8018 1917 c-22 -22 -27 -32 -18 -41 8 -8 17 -2 36 22 30 37 37 39
66 12 20 -18 24 -19 37 -5 20 19 10 27 -46 35 -43 7 -49 5 -75 -23z"/>
<path d="M8355 1890 c3 -5 10 -10 16 -10 5 0 9 5 9 10 0 6 -7 10 -16 10 -8 0
-12 -4 -9 -10z"/>
<path d="M8420 1845 c-12 -15 -11 -16 16 -13 16 1 28 8 27 13 -3 17 -29 17
-43 0z"/>
<path d="M8653 1773 c37 -15 67 -12 67 7 0 6 -23 10 -52 9 l-53 0 38 -16z"/>
<path d="M8990 1770 c0 -13 48 -36 56 -27 4 4 1 13 -6 22 -14 17 -50 20 -50 5z"/>
<path d="M9275 1680 c3 -5 15 -10 26 -10 10 0 19 5 19 10 0 6 -12 10 -26 10
-14 0 -23 -4 -19 -10z"/>
<path d="M9340 1610 c0 -5 15 -10 34 -10 19 0 38 5 41 10 4 6 -10 10 -34 10
-23 0 -41 -4 -41 -10z"/>
<path d="M9738 1546 c-17 -12 -15 -26 4 -26 5 0 6 5 2 12 -5 8 -2 9 10 5 23
-9 43 3 25 14 -18 11 -21 11 -41 -5z"/>
<path d="M9538 1535 c13 -9 26 -14 29 -11 8 8 3 12 -27 21 l-25 7 23 -17z"/>
<path d="M9580 1536 c0 -13 20 -26 40 -26 5 0 8 9 7 20 -2 23 -47 29 -47 6z"/>
<path d="M10206 1374 c-9 -22 -8 -26 6 -22 13 5 20 38 8 38 -4 0 -11 -7 -14
-16z"/>
<path d="M10290 1350 c0 -5 6 -10 14 -10 8 0 18 5 21 10 3 6 -3 10 -14 10 -12
0 -21 -4 -21 -10z"/>
<path d="M10800 1170 c0 -5 5 -10 10 -10 6 0 10 5 10 10 0 6 -4 10 -10 10 -5
0 -10 -4 -10 -10z"/>
<path d="M10875 1120 c-4 -6 9 -10 32 -9 30 0 34 2 18 9 -27 12 -43 12 -50 0z"/>
<path d="M11010 1086 c0 -3 4 -16 10 -30 6 -17 14 -24 25 -20 21 8 19 31 -4
44 -21 11 -31 13 -31 6z"/>
<path d="M11090 1042 c0 -11 46 -32 54 -25 3 3 1 12 -5 20 -13 14 -49 18 -49
5z"/>
<path d="M11250 980 c0 -5 5 -10 11 -10 5 0 7 5 4 10 -3 6 -8 10 -11 10 -2 0
-4 -4 -4 -10z"/>
<path d="M11145 940 c22 -23 32 -27 46 -19 29 15 23 36 -12 43 -60 12 -65 8
-34 -24z"/>
<path d="M11265 910 c-8 -13 37 -31 49 -20 4 5 5 13 2 19 -9 14 -43 14 -51 1z"/>
</g>
</svg>
